<svg width="30" height="40" viewBox="0 0 40 49" fill="none" xmlns="http://www.w3.org/2000/svg">
    <path d="M8.063 5C5.823 5 4 6.81 4 9.03V39.97C4 42.191 5.823 44 8.063 44h23.869c2.24 0 4.063-1.809 4.063-4.029V14.528s.064-.745-.262-1.47a4.073 4.073 0 0 0-.805-1.152c0-.002-.002-.004-.003-.005l-5.922-5.758a1.13 1.13 0 0 0-.01-.01s-.506-.477-1.255-.796c-.883-.375-1.792-.336-1.792-.336L25.959 5H8.063z" fill="#FF2116"/>
    <path d="M25.854 6.592h.014s.703.007 1.217.226c.494.211.845.53.848.533l.002.002 5.801 5.66s.35.367.519.745c.137.304.145.862.145.862l-.001.028v25.095a2.652 2.652 0 0 1-2.68 2.665H8.28A2.652 2.652 0 0 1 5.6 39.743V9.258a2.652 2.652 0 0 1 2.68-2.666h17.574z" fill="#F5F5F5"/>
    <path fill-rule="evenodd" clip-rule="evenodd" d="M11.536 27.76c-.925-.904.076-2.147 2.792-3.466l1.709-.83.666-1.424c.366-.783.912-2.06 1.214-2.84l.548-1.415-.378-1.048c-.465-1.288-.63-3.224-.335-3.92.4-.943 1.708-.846 2.226.164.405.79.363 2.22-.116 4.022l-.394 1.478.347.575c.19.316.747 1.067 1.236 1.668l.92 1.12 1.146-.147c3.637-.464 4.883.325 4.883 1.455 0 1.428-2.856 1.545-5.255-.102-.54-.37-.91-.738-.91-.738s-1.503.299-2.242.494c-.76.2-1.14.326-2.244.69l-.02.006s-.392.557-.648.962c-.952 1.507-2.063 2.756-2.856 3.21-.888.51-1.82.544-2.289.086zm1.452-.507c.52-.314 1.572-1.53 2.3-2.66l.296-.457-1.343.66c-2.075 1.02-3.023 1.98-2.53 2.561.277.327.609.3 1.277-.104zm13.332-5.03c.575.284.649.985.14 1.334-.286.2-.663.22-1.316.025-.661-.198-1.568-.585-1.94-.793-.28-.157-.912-.583-.912-.583.195-.043 1.344-.183 2.058-.231 1.162-.017 1.523.028 1.97.249zm-5.277-.867c-.308-.317-.83-.977-1.163-1.467-.434-.557-.651-.95-.651-.95s-.317.998-.578 1.598L17.84 22.5l-.235.445s1.251-.4 1.888-.563a48.906 48.906 0 0 1 2.043-.436l-.492-.59zM19.198 12.9c.211.325.178.968.1 1.612-.105.647-.29 1.503-.41 1.901l-.218.724-.31-.96c-.17-.53-.297-1.387-.338-1.89-.12-1.49.589-2.014 1.176-1.387z" fill="#FF2116"/>
    <path fill-rule="evenodd" clip-rule="evenodd" d="M15.06 31.827h-1.418v6.397h.949v-2.498h.49c.55 0 .956-.067 1.219-.201.266-.134.477-.353.634-.656.157-.303.235-.666.235-1.088 0-.459-.097-.851-.29-1.176-.193-.328-.43-.539-.714-.633-.282-.097-.65-.145-1.104-.145zm-.47 3.051v-2.23h.47c.275 0 .476.021.601.065.13.04.247.153.353.337.107.181.16.419.16.713 0 .393-.081.678-.244.853-.16.175-.45.262-.87.262h-.47zM19.185 31.827h-1.29v6.397h1.361c.655 0 1.159-.15 1.512-.45.355-.3.619-.693.79-1.18.173-.491.26-1.049.26-1.674 0-.593-.097-1.134-.29-1.621-.19-.488-.473-.855-.848-1.102-.373-.247-.871-.37-1.495-.37zm-.34 5.549v-4.7h.394c1.05 0 1.575.783 1.575 2.352 0 .712-.125 1.283-.374 1.71-.249.426-.65.638-1.2.638h-.395z" fill="#2C2C2C"/>
    <path d="M22.729 31.827h3.183v.848h-2.235v1.913h1.79v.848h-1.79v2.788h-.948v-6.397z" fill="#2C2C2C"/>
</svg>
