<svg width="40" height="49" viewBox="0 0 40 49" fill="none" xmlns="http://www.w3.org/2000/svg">
    <path fill-rule="evenodd" clip-rule="evenodd" d="m28.041 6.192 7.765 7.681a.599.599 0 0 1 .194.448v26.333c-.007 1.362-1.121 2.464-2.498 2.471H8.733c-1.376-.007-2.49-1.11-2.498-2.47v-3.29c0-.354.29-.64.647-.64.358 0 .647.286.647.64v3.29c0 .657.54 1.19 1.204 1.19h24.77c.664 0 1.203-.533 1.203-1.19V14.96h-7.118a.644.644 0 0 1-.647-.64v-7.04H8.733c-.665 0-1.204.532-1.204 1.19v12.251c0 .354-.29.64-.647.64a.644.644 0 0 1-.647-.64V8.471C6.242 7.109 7.357 6.007 8.733 6h18.855a.611.611 0 0 1 .453.191zm5.746 7.49-5.552-5.493v5.492h5.552z" fill="#00D40C"/>
    <path d="M30.176 34.01v-8.654a2.05 2.05 0 0 0-.61-1.47 2.095 2.095 0 0 0-1.486-.604H5.097a2.095 2.095 0 0 0-1.487.604 2.05 2.05 0 0 0-.61 1.47v8.654a2.05 2.05 0 0 0 .61 1.47c.394.39.93.608 1.486.604H28.08a2.096 2.096 0 0 0 1.486-.604c.394-.39.614-.919.61-1.47z" fill="#00D40C"/>
    <path d="M12.719 27.532h-1.087v2.56h1.294c.436.052.874-.072 1.216-.345.237-.272.354-.627.324-.985a1.045 1.045 0 0 0-.401-.935 2.429 2.429 0 0 0-1.346-.295z" fill="#00D40C"/>
    <path fill-rule="evenodd" clip-rule="evenodd" d="M23.577 32.255c-.327.201-.73.302-1.208.302-.787 0-1.431-.273-1.934-.818-.523-.547-.785-1.297-.785-2.247 0-.962.264-1.733.793-2.313.53-.58 1.229-.87 2.1-.87.754 0 1.36.191 1.818.574.458.383.72.86.787 1.432h-1.22c-.094-.405-.324-.689-.689-.85a1.692 1.692 0 0 0-.68-.133c-.479 0-.872.181-1.18.542-.307.361-.46.905-.46 1.63 0 .73.166 1.247.5 1.55a1.64 1.64 0 0 0 1.135.456c.417 0 .758-.12 1.023-.36.266-.241.43-.556.492-.945h-1.374v-.991h2.474V32.4h-.822l-.125-.741c-.24.282-.454.48-.645.596zm-13.84-1.99V32.4H8.502v-5.938h2.587c.596 0 1.071.153 1.426.46.354.306.531.78.531 1.421 0 .701-.177 1.197-.531 1.487-.355.29-.861.435-1.52.435h-1.26zm0-1.023h1.155c.293 0 .52-.071.683-.214.163-.142.244-.368.244-.676 0-.31-.082-.53-.244-.661-.162-.132-.39-.197-.683-.197H9.736v1.748zm5.377 3.158v-4.218l2.425 4.218h1.24v-5.938h-1.155v4.145l-2.365-4.145h-1.301V32.4h1.156z" fill="#fff"/>
</svg>
