<svg width="40" height="49" viewBox="0 0 40 49" fill="none" xmlns="http://www.w3.org/2000/svg">
    <path fill-rule="evenodd" clip-rule="evenodd" d="m27.041 6.192 7.765 7.681a.599.599 0 0 1 .194.448v26.333c-.007 1.362-1.121 2.464-2.498 2.471H7.733c-1.376-.007-2.49-1.11-2.498-2.47v-3.29c0-.354.29-.64.647-.64.358 0 .647.286.647.64v3.29c0 .657.54 1.19 1.204 1.19h24.77c.664 0 1.203-.533 1.203-1.19V14.96h-7.118a.644.644 0 0 1-.647-.64v-7.04H7.733c-.665 0-1.204.532-1.204 1.19v12.251c0 .354-.29.64-.647.64a.644.644 0 0 1-.647-.64V8.471C5.242 7.109 6.357 6.007 7.733 6h18.855a.611.611 0 0 1 .453.191zm5.746 7.49-5.552-5.493v5.492h5.552z" fill="#1A73E8"/>
    <path fill-rule="evenodd" clip-rule="evenodd" d="M29.176 34.01v-8.654a2.05 2.05 0 0 0-.61-1.47 2.095 2.095 0 0 0-1.486-.604H4.097a2.095 2.095 0 0 0-1.487.604 2.05 2.05 0 0 0-.61 1.47v8.654a2.05 2.05 0 0 0 .61 1.47c.394.39.93.608 1.487.604H27.08a2.095 2.095 0 0 0 1.486-.604c.394-.39.614-.919.61-1.47zm-21.34-3.277c.044.604-.161 1.2-.569 1.651-.37.358-.868.556-1.385.55a2.602 2.602 0 0 1-1.902-.78l.608-.832c.316.341.75.552 1.217.589.269 0 .528-.1.724-.282.207-.232.31-.537.285-.845V27.52H4.731v-.948h3.106v4.161zm3.922.294a3.432 3.432 0 0 0 2.083-.524 2.024 2.024 0 0 0 .686-1.69 2.037 2.037 0 0 0-.673-1.69 3.262 3.262 0 0 0-2.11-.55h-2.2v6.31h1.088v-1.856h1.126zm8.631 1.857h-4.594v-6.312h4.478v.999h-3.404v1.664h3.055v.96h-3.055v1.677h3.52v1.012zm1.023-3.2c-.047.87.277 1.72.893 2.342.63.613 1.485.946 2.368.922a3.306 3.306 0 0 0 2.588-.986v-2.15h-1.074v1.702a2.74 2.74 0 0 1-1.527.397 2.134 2.134 0 0 1-1.54-.615 2.138 2.138 0 0 1-.647-1.613 2.115 2.115 0 0 1 .725-1.613c.44-.41 1.026-.63 1.63-.614.298-.004.594.035.88.115.276.096.531.244.75.435l.57-.806a3.322 3.322 0 0 0-2.29-.794 3.306 3.306 0 0 0-2.36.948 3.234 3.234 0 0 0-.966 2.33z" fill="#1A73E8"/>
    <path d="M11.719 27.532h-1.087v2.56h1.294c.436.052.874-.072 1.216-.345.237-.272.354-.627.324-.985a1.045 1.045 0 0 0-.401-.935 2.429 2.429 0 0 0-1.346-.295z" fill="#1A73E8"/>
</svg>
