<svg xmlns="http://www.w3.org/2000/svg" width="24" height="24" viewBox="0 0 24 24">
    <g fill="none" fill-rule="evenodd">
        <g fill-rule="nonzero">
            <g>
                <g>
                    <path fill="#1251A5" d="M21.204 1.456C20.486.526 19.42 0 18.284 0H3.734C2.599 0 1.533.525.814 1.456c-.718.907-.973 2.1-.718 3.246l1.808 8.019c.393 1.742 1.876 2.96 3.614 2.96h1.738l1.83 3.197c.394.692 1.112 1.122 1.9 1.122.788 0 1.506-.406 1.9-1.122l1.83-3.198h1.738c1.738 0 3.22-1.217 3.615-2.96l1.807-8.018c.3-1.146.046-2.34-.672-3.246z" transform="translate(-945 -36) translate(945 36) translate(1 2)"/>
                    <path fill="#A3C7F6" d="M20.069 4.306l-1.808 7.988c-.185.856-.927 1.45-1.76 1.45H14.23c-.348 0-.649.19-.811.476l-2.155 3.637c-.07.143-.208.143-.255.143-.07 0-.185-.024-.255-.143l-2.108-3.66c-.162-.286-.487-.476-.811-.476h-2.27c-.858 0-1.576-.595-1.762-1.45L1.95 4.305c-.116-.547 0-1.141.347-1.593C2.645 2.262 3.155 2 3.711 2h14.573c.557 0 1.066.262 1.414.713.37.452.486 1.023.37 1.593z" transform="translate(-945 -36) translate(945 36) translate(1 2)"/>
                    <path fill="#1251A5" d="M14.342 4.709L10.53 8.852 8.658 6.82c-.38-.412-.995-.412-1.374 0-.379.412-.379 1.081 0 1.493l2.558 2.78c.19.205.45.308.687.308.26 0 .497-.103.687-.309l4.5-4.89c.379-.411.379-1.08 0-1.492-.38-.412-.995-.412-1.374 0z" transform="translate(-945 -36) translate(945 36) translate(1 2)"/>
                </g>
            </g>
        </g>
    </g>
</svg>
