<svg xmlns="http://www.w3.org/2000/svg" width="24" height="24" viewBox="0 0 24 24">
    <g fill="none" fill-rule="evenodd">
        <g fill-rule="nonzero">
            <g>
                <g>
                    <g>
                        <path fill="#1251A5" stroke="#1251A5" stroke-width="2.2" d="M18.129 16.565l-3.027 1.45c-.418-.788-1.22-1.29-2.102-1.315l-2.795-.078c-.443-.013-.877-.127-1.27-.333l-.284-.149c-1.457-.77-3.192-.768-4.646.005l.017-.654c.003-.104-.035-.204-.105-.28-.07-.075-.168-.12-.27-.122l-3.065-.086C.48 15 .38 15.04.306 15.11c-.074.072-.118.17-.12.274L0 22.206c-.003.104.035.205.106.28.07.076.167.12.27.123l3.064.085h.011c.21 0 .38-.169.386-.38l.01-.327.795-.433c.313-.17.678-.21 1.02-.113l4.753 1.354.026.006c.343.073.693.11 1.044.11.744 0 1.479-.163 2.154-.477.017-.008.033-.017.048-.027l6.893-4.523c.172-.113.227-.342.127-.522-.512-.922-1.647-1.272-2.578-.797z" transform="translate(-482 -35) translate(482 35) translate(2)"/>
                        <path fill="#1251A5" d="M10.564 14.568c3.07 0 5.56-2.529 5.56-5.648 0-.784-.158-1.531-.442-2.21-.846-2.021-2.82-3.438-5.118-3.438-3.07.003-5.557 2.53-5.56 5.648 0 3.119 2.49 5.648 5.56 5.648z" transform="translate(-482 -35) translate(482 35) translate(2)"/>
                        <path fill="#A3C7F6" d="M10.6 4.9c2.21 0 4 1.79 4 4s-1.79 4-4 4-4-1.79-4-4c.002-2.208 1.792-3.998 4-4zM13.291 21.733c-.84.385-1.777.49-2.68.304l-4.74-1.35c-.534-.153-1.105-.09-1.593.176l-.407.221.109-4.014c1.289-.87 2.942-.96 4.315-.234l.284.15c.497.26 1.046.404 1.605.42l2.794.078c.785.023 1.452.59 1.611 1.37l-4.162-.116c-.214-.006-.391.164-.397.38-.006.217.183.537.397.543l4.313.096h.07c.21 0 .58-.277.586-.489.005-.17-.008-.34-.037-.508l3.105-1.489.009-.004c.44-.226.973-.15 1.335.19l-6.517 4.276zM.784 21.836L.93 15.798 2.984 15.862 2.837 21.9z" transform="translate(-482 -35) translate(482 35) translate(2)"/>
                        <path fill="#1251A5" d="M11 2.826V1.174c0-.096-.224-.174-.5-.174s-.5.078-.5.174v1.652c0 .096.224.174.5.174s.5-.078.5-.174zM13 2.538V.462C13 .207 12.776 0 12.5 0s-.5.207-.5.462v2.076c0 .255.224.462.5.462s.5-.207.5-.462zM9 2.538V.462C9 .207 8.776 0 8.5 0S8 .207 8 .462v2.076c0 .255.224.462.5.462s.5-.207.5-.462z" transform="translate(-482 -35) translate(482 35) translate(2)"/>
                    </g>
                    <g fill="#1251A5" stroke="#1251A5" stroke-width=".5">
                        <path d="M1.263.64h.497V1.953l1.508-.557v.403l-1.508.557v.218l.817-.295.691-.262V2.4c0 .017-.004.025-.012.025l-1.452.532c-.017.008-.032.017-.044.025V5.154c.381-.047.718-.194 1.012-.442.322-.269.538-.604.647-1.005.046-.184.07-.367.07-.55h.502c0 .413-.098.804-.295 1.17-.139.283-.327.526-.566.73-.222.201-.471.355-.748.462-.36.14-.733.19-1.119.147V4.417 3.163l-.082.032-.861.313v-.403l.943-.346v-.224c-.046.021-.108.047-.185.077-.078.03-.127.047-.148.051l-.497.186-.04.013C.364 2.87.34 2.877.32 2.88v-.403l.943-.34V1.39.64z" transform="translate(-482 -35) translate(482 35) translate(2) translate(8.6 5.8)"/>
                    </g>
                </g>
            </g>
        </g>
    </g>
</svg>
