<svg xmlns="http://www.w3.org/2000/svg" width="21" height="21" viewBox="0 0 21 21">
    <g fill="none" fill-rule="evenodd">
        <g>
            <g>
                <g transform="translate(-1285 -961) translate(1269 947) translate(16 14)">
                    <g fill-rule="nonzero">
                        <g>
                            <path fill="#92FFB8" d="M4.375 1.75c-1.45 0-2.625 1.175-2.625 2.625v7C1.75 12.825 2.925 14 4.375 14h.875c.483 0 .875.392.875.875v1.864l3.894-2.625c.146-.084.313-.123.481-.114h4.375c1.45 0 2.625-1.175 2.625-2.625v-7c0-1.45-1.175-2.625-2.625-2.625h-10.5z" transform="translate(.875 .875)"/>
                            <path fill="#0B732F" d="M5.25 19.25c-.144 0-.285-.037-.411-.105-.285-.152-.463-.447-.464-.77V15.75c-1.16 0-2.273-.46-3.094-1.281C.461 13.649 0 12.535 0 11.375v-7C0 1.959 1.959 0 4.375 0h10.5c1.16 0 2.273.46 3.094 1.281.82.82 1.281 1.934 1.281 3.094v7c0 2.416-1.959 4.375-4.375 4.375h-4.113l-5.03 3.351c-.143.096-.31.148-.482.149zM4.608 2.012C3.223 2.012 2.1 3.136 2.1 4.521v6.689c0 1.385 1.123 2.508 2.508 2.508h.836c.462 0 .837.374.837.836v1.781L10 13.827c.14-.08.3-.118.46-.109h4.18c1.386 0 2.509-1.123 2.509-2.508V4.52c0-1.384-1.123-2.507-2.508-2.507H4.608z" transform="translate(.875 .875)"/>
                        </g>
                    </g>
                    <circle cx="6.125" cy="8.662" r="1.313" fill="#0B732F" transform="rotate(.5 6.125 8.663)"/>
                    <circle cx="10.5" cy="8.662" r="1.313" fill="#0B732F" transform="rotate(.5 10.5 8.662)"/>
                    <circle cx="14.875" cy="8.662" r="1.313" fill="#0B732F" transform="rotate(.5 14.875 8.662)"/>
                </g>
            </g>
        </g>
    </g>
</svg>
