<svg xmlns="http://www.w3.org/2000/svg" width="24" height="24" viewBox="0 0 24 24">
    <g fill="none" fill-rule="evenodd">
        <g fill="#1A73E8" fill-rule="nonzero">
            <g>
                <g>
                    <g>
                        <path d="M11 21.833c5.983 0 10.833-4.85 10.833-10.833C21.833 5.017 16.983.167 11 .167 5.017.167.167 5.017.167 11c0 5.983 4.85 10.833 10.833 10.833zm0-1.666c-5.063 0-9.167-4.104-9.167-9.167S5.937 1.833 11 1.833 20.167 5.937 20.167 11 16.063 20.167 11 20.167z" transform="translate(-418 -529) translate(170 517) translate(248 12) translate(1 1)"/>
                        <path d="M8.5 16.833c-.46 0-.833-.373-.833-.833 0-.46.373-.833.833-.833h1.666v-5H8.5c-.46 0-.833-.373-.833-.834 0-.46.373-.833.833-.833h1.667c.92 0 1.666.746 1.666 1.667v5H13.5c.425 0 .775.318.827.728l.006.105c0 .46-.373.833-.833.833zm1.25-12.5c.69 0 1.25.56 1.25 1.25s-.56 1.25-1.25 1.25-1.25-.56-1.25-1.25.56-1.25 1.25-1.25z" transform="translate(-418 -529) translate(170 517) translate(248 12) translate(1 1)"/>
                    </g>
                </g>
            </g>
        </g>
    </g>
</svg>
