<svg xmlns="http://www.w3.org/2000/svg" width="24" height="24" viewBox="0 0 24 24">
    <g fill="none" fill-rule="evenodd">
        <g fill-rule="nonzero">
            <g>
                <g>
                    <path fill="#1A73E8" d="M10.11 17.108H2.857c3.922 1.161 6.559 1.612 7.912 1.354 1.17-.224-.518-5.636.77-6.924 1.538-1.538 3.846.77 3.846-3.23V5.402c0-.36-.14-.704-.387-.958l-2.444-2.509c-.247-.254-.582-.397-.932-.397H2.857c-.728 0-1.319.607-1.319 1.354v14.216c0 .747.59 1.354 1.32 1.354h7.252c.364 0 .66-.304.66-.677 0-.374-.296-.677-.66-.677z" opacity=".4" transform="translate(-745 -36) translate(745 36) translate(3 2)"/>
                    <path fill="#1251A5" d="M4.23 8.077h7.308c.425 0 .77-.344.77-.77 0-.424-.345-.769-.77-.769H4.231c-.425 0-.77.345-.77.77 0 .425.345.769.77.769zM4.23 10.385h4.616c.425 0 .77-.345.77-.77 0-.424-.345-.769-.77-.769H4.231c-.425 0-.77.345-.77.77 0 .424.345.769.77.769zM4.23 5.77h5.385c.425 0 .77-.345.77-.77 0-.425-.345-.77-.77-.77H4.231c-.425 0-.77.345-.77.77 0 .425.345.77.77.77zM4.23 12.692h3.078c.425 0 .769-.344.769-.769 0-.425-.344-.77-.77-.77H4.232c-.425 0-.77.345-.77.77 0 .425.345.77.77.77zM4.23 15h3.078c.425 0 .769-.344.769-.77 0-.424-.344-.768-.77-.768H4.232c-.425 0-.77.344-.77.769 0 .425.345.769.77.769z" opacity=".704" transform="translate(-745 -36) translate(745 36) translate(3 2)"/>
                    <path fill="#1251A5" d="M10.385 18.077H1.923V1.923h10.225L15 4.775v3.302c0 .425.344.77.77.77.424 0 .768-.345.768-.77V4.775c0-.409-.162-.8-.45-1.088L13.236.835c-.288-.288-.68-.45-1.087-.45H1.923c-.85 0-1.538.688-1.538 1.538v16.154c0 .85.688 1.538 1.538 1.538h8.462c.424 0 .769-.344.769-.769 0-.425-.345-.77-.77-.77z" transform="translate(-745 -36) translate(745 36) translate(3 2)"/>
                    <path fill="#1251A5" d="M13.868 18.122c2.35 0 4.254-1.905 4.254-4.254 0-2.348-1.905-4.253-4.254-4.253-2.348 0-4.253 1.905-4.253 4.253 0 2.35 1.905 4.254 4.253 4.254zm0-1.539c-1.499 0-2.714-1.215-2.714-2.715 0-1.499 1.215-2.714 2.714-2.714 1.5 0 2.715 1.215 2.715 2.714 0 1.5-1.215 2.715-2.715 2.715z" transform="translate(-745 -36) translate(745 36) translate(3 2)"/>
                    <path fill="#1251A5" d="M19.39 18.302l-2.498-2.498c-.3-.3-.788-.3-1.088 0-.3.3-.3.787 0 1.088l2.498 2.498c.3.3.788.3 1.088 0 .3-.3.3-.787 0-1.088z" transform="translate(-745 -36) translate(745 36) translate(3 2)"/>
                </g>
            </g>
        </g>
    </g>
</svg>
