<svg width="24" height="24" viewBox="0 0 24 24" fill="none" xmlns="http://www.w3.org/2000/svg">
    <path fill="#A3C7F6" d="M5 3h17v19H5z"/>
    <path fill-rule="evenodd" clip-rule="evenodd" d="M10.21 6.288V11.4H8.752V6.288H6.736V5.1h5.49v1.188H10.21zm7.416 3.924V11.4H13.01V5.1h1.458v5.112h3.16z" fill="#1251A5"/>
    <path fill-rule="evenodd" clip-rule="evenodd" d="M22 3a2 2 0 0 0-2-2H5a2 2 0 0 0-2 2v18a2 2 0 0 0 2 2h15a2 2 0 0 0 2-2V3zM5 3h15v18H5V3z" fill="#1251A5"/>
    <rect x="7" y="14" width="11" height="1.7" rx=".85" fill="#1251A5"/>
    <rect x="7" y="17" width="11" height="1.7" rx=".85" fill="#1251A5"/>
</svg>
