<svg xmlns="http://www.w3.org/2000/svg" width="24" height="24" viewBox="0 0 24 24">
    <g fill="none" fill-rule="evenodd">
        <g fill-rule="nonzero">
            <g>
                <g>
                    <path fill="#A3C7F6" d="M10 0c5.523 0 10 4.477 10 10s-4.477 10-10 10S0 15.523 0 10 4.477 0 10 0z" transform="translate(-1192 -36) translate(1192 36) translate(2 2)"/>
                    <path fill="#1251A5" d="M10 20c5.523 0 10-4.477 10-10S15.523 0 10 0 0 4.477 0 10s4.477 10 10 10zm0-1.74c-4.562 0-8.26-3.698-8.26-8.26 0-4.562 3.698-8.26 8.26-8.26 4.562 0 8.26 3.698 8.26 8.26 0 4.562-3.698 8.26-8.26 8.26z" transform="translate(-1192 -36) translate(1192 36) translate(2 2)"/>
                    <path fill="#1251A5" d="M10.1 14c2.761 0 5-2.239 5-5s-2.239-5-5-5-5 2.239-5 5 2.239 5 5 5zm0-1.818c-1.757 0-3.182-1.425-3.182-3.182S8.343 5.818 10.1 5.818 13.282 7.243 13.282 9s-1.425 3.182-3.182 3.182z" transform="translate(-1192 -36) translate(1192 36) translate(2 2)"/>
                    <path fill="#1251A5" d="M5.28 17.854c1.069-1.927 2.93-3.085 4.92-3.085 1.99 0 3.851 1.158 4.92 3.085.237.426.342-.193.763-.432.42-.24.998-.007.762-.433C15.274 14.517 12.837 13 10.2 13c-2.637 0-5.074 1.517-6.445 3.989-.236.426.341.193.762.433.421.239.526.858.763.432z" transform="translate(-1192 -36) translate(1192 36) translate(2 2)"/>
                </g>
            </g>
        </g>
    </g>
</svg>
