<svg xmlns="http://www.w3.org/2000/svg" width="20" height="20" viewBox="0 0 20 20">
    <g fill="none" fill-rule="evenodd">
        <g fill="#1A73E8" fill-rule="nonzero">
            <g>
                <g>
                    <path d="M17.96 9.247l-.77-.578c-.333-.262-.456-.717-.298-1.102l.368-.893c.228-.578-.14-1.208-.753-1.296l-.964-.122c-.42-.053-.753-.386-.806-.806l-.123-.963c-.087-.612-.718-.98-1.296-.752l-.894.367c-.385.158-.84.035-1.103-.297l-.596-.77c-.368-.49-1.121-.49-1.49 0l-.56.787c-.263.333-.718.455-1.104.298l-.893-.385c-.579-.228-1.21.14-1.297.752l-.123.963c-.052.42-.385.753-.806.806l-.963.122c-.613.088-.981.718-.754 1.296l.368.893c.158.385.035.84-.297 1.102l-.771.596c-.491.367-.491 1.12 0 1.488l.788.578c.333.262.456.717.298 1.102l-.386.893c-.227.578.14 1.208.754 1.296l.963.122c.421.053.754.386.806.806l.123.963c.088.612.718.98 1.297.752l.893-.367c.386-.158.841-.035 1.104.297l.596.77c.368.49 1.121.49 1.489 0l.596-.77c.262-.332.718-.455 1.103-.297l.894.367c.578.228 1.209-.14 1.296-.752l.123-.963c.053-.42.386-.753.806-.806l.964-.122c.613-.088.98-.718.753-1.296l-.368-.893c-.158-.385-.035-.84.298-1.102l.77-.596c.456-.367.456-1.103-.034-1.488zm-4.425-.312l-3.458 3.433c-.19.19-.439.285-.706.285-.268 0-.516-.095-.707-.285l-1.739-1.726c-.382-.38-.382-1.005 0-1.384.382-.38 1.013-.38 1.395 0l1.031 1.024 2.79-2.732c.381-.379 1.012-.379 1.394 0 .382.38.382 1.006 0 1.385z" transform="translate(-118 -473) translate(116 471) translate(2 2)"/>
                </g>
            </g>
        </g>
    </g>
</svg>
