<svg xmlns="http://www.w3.org/2000/svg" width="57" height="24" viewBox="0 0 57 24">
    <g fill="none" fill-rule="evenodd">
        <g fill="#FFF">
            <g>
                <g>
                    <path d="M16.458 22.702c-.389 0-.844-.298-.844-.935 0-.629.455-.935.844-.935.376 0 .82.276.82.935 0 .647-.444.935-.82.935m.998-2.2c-.107 0-.198.09-.198.201v.29c-.15-.323-.491-.507-.856-.507-.537 0-1.185.425-1.185 1.281 0 .865.648 1.288 1.185 1.288.427 0 .76-.263.856-.555v.346c0 .105.091.202.198.202.109 0 .201-.097.201-.202v-2.143c0-.112-.085-.202-.201-.202M21.234 21.272h-.558v-1.07h.558c.363 0 .631.144.631.54 0 .4-.268.53-.63.53m.029-1.624h-.882c-.208 0-.356.15-.356.356v2.723c0 .178.144.328.327.328.179 0 .323-.15.323-.328v-.903h.588c.75 0 1.232-.465 1.232-1.082 0-.607-.482-1.094-1.232-1.094M24.02 22.507c-.318 0-.65-.244-.65-.74 0-.491.332-.74.65-.74.27 0 .626.196.626.74 0 .543-.356.74-.626.74m.915-2.006c-.173 0-.319.144-.319.311v.085c-.095-.227-.37-.41-.712-.41-.526 0-1.165.424-1.165 1.28 0 .876.636 1.288 1.165 1.288.42 0 .676-.263.712-.412v.092c0 .174.146.313.319.313.169 0 .322-.139.322-.313v-1.923c0-.167-.153-.31-.322-.31M27.89 20.501c-.12 0-.233.067-.298.221l-.661 1.492-.645-1.492c-.069-.154-.183-.22-.303-.22-.165 0-.29.13-.29.281 0 .059.02.109.034.147l.896 1.975-.275.626c-.013.038-.032.085-.032.145 0 .152.115.282.277.282.122 0 .238-.066.305-.22l1.248-2.808c.018-.038.039-.088.039-.147 0-.151-.127-.282-.296-.282M31.136 19.633c-.184 0-.338.143-.338.316V21.8c0 .506-.317.706-.693.706-.37 0-.694-.2-.694-.706V19.95c0-.173-.153-.316-.333-.316-.178 0-.317.143-.317.316v1.863c0 .778.593 1.243 1.344 1.243.746 0 1.344-.465 1.344-1.243v-1.863c0-.173-.137-.316-.313-.316M34.667 20.838c.213 0 .453.087.597.279.04.049.097.093.169.093.091 0 .169-.069.169-.165 0-.077-.053-.13-.092-.177-.212-.257-.514-.382-.862-.382-.569 0-1.253.42-1.253 1.281 0 .857.684 1.278 1.253 1.278.348 0 .65-.132.862-.386.039-.045.092-.096.092-.173 0-.096-.078-.165-.17-.165-.07 0-.129.042-.168.093-.144.192-.384.278-.597.278-.428 0-.875-.308-.875-.925 0-.62.447-.929.875-.929M37.181 22.702c-.4 0-.856-.312-.856-.93 0-.62.457-.934.856-.934.405 0 .858.313.858.934 0 .618-.453.93-.858.93m0-2.216c-.553 0-1.253.43-1.253 1.286 0 .86.7 1.283 1.253 1.283.56 0 1.257-.423 1.257-1.283 0-.857-.697-1.286-1.257-1.286M42.057 20.49c-.506 0-.825.334-.96.627-.146-.458-.52-.627-.876-.627-.573 0-.872.44-.9.603v-.39c0-.112-.091-.202-.199-.202-.11 0-.202.09-.202.202v2.14c0 .103.092.202.202.202.108 0 .199-.099.199-.202V21.53c.043-.274.293-.689.783-.689.338 0 .656.198.656.722v1.279c0 .103.086.202.197.202.111 0 .202-.099.202-.202V21.53c.045-.274.295-.689.787-.689.337 0 .649.198.649.722v1.279c0 .103.092.202.203.202.11 0 .196-.099.196-.202v-1.279c0-.8-.481-1.074-.937-1.074M44.787 22.702c-.376 0-.819-.288-.819-.935 0-.659.443-.935.819-.935.39 0 .841.306.841.935 0 .637-.45.935-.841.935m.057-2.216c-.367 0-.708.184-.857.507v-.29c0-.112-.091-.202-.197-.202-.116 0-.201.09-.201.202v3.054c0 .11.09.2.2.2.107 0 .202-.09.202-.2v-1.243c.103.287.429.54.853.54.535 0 1.185-.422 1.185-1.287 0-.856-.65-1.28-1.185-1.28M47.62 22.702c-.392 0-.844-.298-.844-.935 0-.629.452-.935.844-.935.373 0 .817.276.817.935 0 .647-.444.935-.817.935m.995-2.2c-.104 0-.198.09-.198.201v.29c-.149-.323-.49-.507-.856-.507-.534 0-1.184.425-1.184 1.281 0 .865.65 1.288 1.184 1.288.428 0 .76-.263.856-.555v.346c0 .105.094.202.198.202.112 0 .2-.097.2-.202v-2.143c0-.112-.084-.202-.2-.202M50.696 20.49c-.574 0-.873.44-.901.603v-.39c0-.112-.09-.202-.197-.202-.11 0-.203.09-.203.202v2.14c0 .103.093.202.203.202.106 0 .197-.099.197-.202V21.53c.044-.274.295-.689.786-.689.336 0 .655.198.655.722v1.279c0 .103.086.202.198.202.11 0 .201-.099.201-.202v-1.279c0-.8-.486-1.074-.94-1.074M54.064 20.501c-.078 0-.15.042-.19.135l-.788 1.84-.786-1.84c-.038-.093-.111-.135-.188-.135-.105 0-.188.087-.188.184 0 .037.01.062.02.09l.944 2.158-.323.752c-.01.03-.02.053-.02.091 0 .095.072.182.178.182.078 0 .15-.043.189-.134l1.32-3.05c.01-.027.019-.052.019-.09 0-.096-.082-.183-.187-.183M1.578 4.504c-.773 0-1.4.628-1.4 1.4v8.195c0 .775.627 1.4 1.4 1.4.774 0 1.402-.625 1.402-1.4V5.904c0-.772-.628-1.4-1.402-1.4M1.578.042C.724.042.031.736.031 1.591c0 .854.693 1.548 1.547 1.548.855 0 1.549-.694 1.549-1.548 0-.855-.694-1.549-1.549-1.549M26.66 14.1c0-.774-.629-1.403-1.403-1.403h-3.87l4.946-5.893c.496-.591.418-1.477-.174-1.972-.276-.232-.614-.339-.948-.328h-6.19c-.774 0-1.4.628-1.4 1.4 0 .774.626 1.404 1.4 1.404h3.233l-4.945 5.89c-.498.594-.42 1.478.172 1.974.263.222.583.328.901.328h6.875c.774 0 1.403-.626 1.403-1.4M39.01 7.12c.767 0 1.486.299 2.03.842.546.546 1.434.546 1.982 0 .545-.548.545-1.435 0-1.982-1.072-1.073-2.497-1.663-4.012-1.663-1.514 0-2.938.59-4.01 1.663-1.071 1.072-1.662 2.494-1.662 4.01 0 1.515.59 2.94 1.662 4.01 1.072 1.072 2.496 1.663 4.01 1.663 1.515 0 2.94-.591 4.012-1.664.545-.545.545-1.432 0-1.98-.548-.548-1.436-.548-1.982 0-.544.54-1.263.843-2.03.843-.767 0-1.487-.303-2.028-.843-.543-.542-.84-1.263-.84-2.029s.297-1.488.84-2.028c.541-.543 1.261-.841 2.028-.841M50.338 12.862c-1.581 0-2.867-1.29-2.867-2.872 0-1.582 1.286-2.87 2.867-2.87 1.583 0 2.87 1.288 2.87 2.87s-1.287 2.872-2.87 2.872m0-8.545c-3.126 0-5.67 2.545-5.67 5.673s2.544 5.673 5.67 5.673c3.128 0 5.672-2.545 5.672-5.673s-2.544-5.673-5.672-5.673M30.101 4.504c-.773 0-1.4.628-1.4 1.4v8.195c0 .775.627 1.4 1.4 1.4.776 0 1.401-.625 1.401-1.4V5.904c0-.772-.625-1.4-1.4-1.4M30.101.042c-.855 0-1.548.694-1.548 1.549 0 .854.693 1.548 1.548 1.548.857 0 1.55-.694 1.55-1.548 0-.855-.693-1.549-1.55-1.549M15.186 4.662c-.688-.357-1.533-.09-1.89.596l-3.005 5.795-3.006-5.795c-.356-.685-1.203-.953-1.89-.596-.685.358-.954 1.204-.596 1.891l3.912 7.544-1.806 3.49c-.358.686-.091 1.532.596 1.89.225.118.468.167.706.156.484-.02.945-.291 1.185-.752l6.389-12.328c.358-.687.092-1.533-.595-1.89" transform="translate(-1007 -1292) translate(0 1005) translate(1007 287)"/>
                </g>
            </g>
        </g>
    </g>
</svg>
