<svg xmlns="http://www.w3.org/2000/svg" width="134" height="24" viewBox="0 0 134 24">
    <g fill="none" fill-rule="evenodd">
        <g>
            <g>
                <g>
                    <path fill="#FFF" d="M61.419 11.83c0-1.365.894-2.487 2.356-2.487 1.398 0 2.34 1.073 2.34 2.486 0 1.414-.942 2.487-2.34 2.487-1.462 0-2.356-1.122-2.356-2.487zm6.289 0V7.944h-1.69v.943c-.537-.699-1.35-1.138-2.454-1.138-2.178 0-3.884 1.707-3.884 4.08 0 2.372 1.706 4.079 3.884 4.079 1.105 0 1.917-.439 2.454-1.138v.943h1.69v-3.885zm57.076 0c0-1.365.894-2.487 2.357-2.487 1.397 0 2.34 1.073 2.34 2.486 0 1.414-.943 2.487-2.34 2.487-1.463 0-2.357-1.122-2.357-2.487zm8.18 3.515v.122h.113c.025 0 .045-.005.061-.015.015-.01.023-.026.023-.047 0-.02-.008-.035-.023-.045-.016-.01-.036-.015-.061-.015h-.113zm.113-.086c.059 0 .105.013.137.04.031.025.047.061.047.106 0 .038-.013.07-.038.094-.025.025-.061.04-.108.045l.15.173h-.117l-.14-.172h-.044v.172h-.098v-.458h.211zm-.028.615c.053 0 .103-.01.148-.03.046-.02.086-.048.12-.082.036-.035.063-.075.083-.122.02-.047.029-.097.029-.15 0-.053-.01-.103-.03-.15-.02-.047-.046-.087-.081-.122s-.075-.062-.12-.082c-.046-.02-.096-.03-.15-.03-.054 0-.104.01-.151.03-.047.02-.088.047-.123.082s-.062.075-.082.122c-.02.047-.029.097-.029.15 0 .053.01.103.03.15.02.047.046.087.081.122.035.034.076.062.123.082.047.02.097.03.152.03zm0-.877c.07 0 .134.012.195.038.06.026.113.062.16.107.045.044.08.096.107.156.026.06.039.124.039.192s-.013.131-.04.19c-.025.06-.061.112-.107.157s-.099.08-.16.107c-.06.025-.125.038-.194.038-.072 0-.138-.013-.2-.038-.061-.026-.114-.062-.16-.107-.044-.045-.08-.097-.106-.156-.026-.06-.04-.123-.04-.191s.014-.132.04-.192c.026-.06.062-.112.107-.156.045-.045.098-.08.16-.107.061-.026.127-.038.199-.038zm-1.976-3.168V4.825h-1.69v4.063c-.536-.699-1.35-1.138-2.454-1.138-2.178 0-3.884 1.707-3.884 4.08 0 2.372 1.706 4.079 3.884 4.079 1.105 0 1.918-.439 2.454-1.138v.943h1.69v-3.885zm-42.4-2.567c1.088 0 1.787.682 1.966 1.885h-4.03c.179-1.121.861-1.885 2.063-1.885zm.032-1.512c-2.275 0-3.868 1.658-3.868 4.08 0 2.47 1.658 4.079 3.982 4.079 1.17 0 2.243-.293 3.185-1.09l-.828-1.25c-.651.52-1.48.812-2.26.812-1.089 0-2.08-.504-2.324-1.902h5.77c.016-.21.032-.422.032-.65-.016-2.421-1.511-4.079-3.69-4.079zm20.396 4.08c0-1.365.893-2.487 2.356-2.487 1.398 0 2.34 1.073 2.34 2.486 0 1.414-.942 2.487-2.34 2.487-1.463 0-2.356-1.122-2.356-2.487zm6.29 0V7.944H113.7v.943c-.536-.699-1.349-1.138-2.454-1.138-2.178 0-3.884 1.707-3.884 4.08 0 2.372 1.706 4.079 3.884 4.079 1.105 0 1.918-.439 2.454-1.138v.943h1.69v-3.885zm-15.83 0c0 2.356 1.642 4.079 4.144 4.079 1.17 0 1.95-.26 2.795-.927l-.812-1.365c-.633.455-1.3.699-2.032.699-1.348-.017-2.34-.992-2.34-2.487s.992-2.47 2.34-2.486c.732 0 1.399.244 2.032.7l.812-1.366c-.845-.667-1.625-.927-2.795-.927-2.502 0-4.144 1.723-4.144 4.08zm21.778-4.08c-.975 0-1.61.455-2.049 1.138v-.943h-1.673v7.769h1.69v-4.356c0-1.284.552-1.999 1.658-1.999.341 0 .699.049 1.056.195l.52-1.592c-.374-.147-.861-.212-1.202-.212zm-45.278.813c-.813-.536-1.933-.813-3.169-.813-1.966 0-3.234.943-3.234 2.486 0 1.268.943 2.049 2.682 2.292l.796.114c.926.13 1.365.374 1.365.812 0 .602-.617.943-1.772.943-1.17 0-2.014-.374-2.583-.812l-.797 1.316c.927.683 2.097 1.008 3.364 1.008 2.243 0 3.543-1.057 3.543-2.536 0-1.365-1.023-2.08-2.714-2.324l-.796-.114c-.731-.097-1.317-.244-1.317-.763 0-.57.553-.91 1.48-.91.99 0 1.95.373 2.421.666l.731-1.365zm21.793-.813c-.975 0-1.608.455-2.047 1.138v-.943h-1.674v7.769h1.69v-4.356c0-1.284.553-1.999 1.658-1.999.341 0 .698.049 1.056.195l.52-1.592c-.373-.147-.861-.212-1.203-.212zm-14.415.195h-2.762V5.589h-1.706v2.356h-1.577V9.49h1.577v3.542c0 1.804.698 2.877 2.697 2.877.731 0 1.576-.228 2.113-.602l-.488-1.446c-.504.293-1.056.438-1.494.438-.846 0-1.122-.52-1.122-1.299V9.49h2.762V7.945zm-25.254 7.769v-4.876c0-1.836-1.17-3.072-3.056-3.088-.99-.016-2.015.293-2.73 1.382-.537-.861-1.382-1.382-2.568-1.382-.83 0-1.641.244-2.275 1.154v-.96h-1.69v7.77h1.706v-4.307c0-1.35.748-2.064 1.901-2.064 1.122 0 1.69.731 1.69 2.048v4.323h1.707v-4.307c0-1.35.78-2.064 1.902-2.064 1.153 0 1.706.731 1.706 2.048v4.323h1.707z" transform="translate(-1088 -1292) translate(0 1005) translate(1088 287)"/>
                    <path fill="#E15D29" d="M14.081 20.963L24.301 20.963 24.301 2.595 14.081 2.595z" transform="translate(-1088 -1292) translate(0 1005) translate(1088 287)"/>
                    <path fill="#D2232C" d="M14.73 11.779c0-3.727 1.744-7.045 4.46-9.184C17.205 1.031 14.698.098 11.973.098c-6.45 0-11.68 5.23-11.68 11.68 0 6.452 5.23 11.682 11.68 11.682 2.725 0 5.232-.933 7.219-2.498-2.717-2.138-4.462-5.457-4.462-9.183" transform="translate(-1088 -1292) translate(0 1005) translate(1088 287)"/>
                    <path fill="#1A1919" d="M37.74 19.32v-.756h-.12l-.137.519-.139-.519h-.12v.755h.085v-.57l.13.492h.087l.13-.493v.571h.085zm-.76 0v-.628h.153v-.127h-.392v.127h.154v.627h.084z" transform="translate(-1088 -1292) translate(0 1005) translate(1088 287)"/>
                    <path fill="#EC972D" d="M38.09 11.779c0 6.451-5.23 11.68-11.68 11.68-2.725 0-5.232-.932-7.22-2.497 2.718-2.138 4.463-5.457 4.463-9.183 0-3.727-1.745-7.045-4.462-9.184C21.178 1.031 23.685.098 26.409.098c6.451 0 11.68 5.23 11.68 11.68" transform="translate(-1088 -1292) translate(0 1005) translate(1088 287)"/>
                </g>
            </g>
        </g>
    </g>
</svg>
