<svg xmlns="http://www.w3.org/2000/svg" width="75" height="24" viewBox="0 0 75 24">
    <g fill="none" fill-rule="evenodd">
        <g fill="#FFF" fill-rule="nonzero">
            <g>
                <path d="M1284.478 303.327c-.043-3.343 2.982-5.209 5.261-6.318 2.342-1.138 3.128-1.868 3.119-2.885-.018-1.558-1.868-2.245-3.6-2.272-3.02-.047-4.776.814-6.172 1.466l-1.088-5.086c1.4-.645 3.995-1.207 6.684-1.232 6.314 0 10.445 3.113 10.467 7.94.025 6.127-8.483 6.466-8.425 9.204.02.83.814 1.716 2.552 1.942.86.114 3.235.2 5.927-1.038l1.057 4.92c-1.448.528-3.31 1.032-5.626 1.032-5.943 0-10.123-3.156-10.156-7.673m25.936 7.249c-1.153 0-2.125-.672-2.558-1.703l-9.02-21.511h6.31l1.255 3.465h7.71l.728-3.465h5.561l-4.852 23.214h-5.134m.882-6.271l1.82-8.717h-4.986l3.166 8.717m-34.468 6.271l-4.973-23.214h6.012l4.971 23.214h-6.01m-8.894 0l-6.257-15.8-2.532 13.434c-.297 1.5-1.47 2.366-2.772 2.366h-10.23l-.143-.674c2.1-.455 4.486-1.19 5.932-1.975.884-.48 1.137-.9 1.427-2.04l4.794-18.525h6.354l9.741 23.214h-6.314" transform="translate(-1246 -1292) translate(0 1005) matrix(1 0 0 -1 0 598)"/>
            </g>
        </g>
    </g>
</svg>
